<mxfile host="Electron" agent="Mozilla/5.0 (Windows NT 10.0; Win64; x64) AppleWebKit/537.36 (KHTML, like Gecko) draw.io/27.0.9 Chrome/134.0.6998.205 Electron/35.4.0 Safari/537.36" version="27.0.9">
  <diagram name="Страница — 1" id="iXOm4uEFBJscFxBkoZ2S">
    <mxGraphModel dx="2275" dy="2002" grid="1" gridSize="10" guides="1" tooltips="1" connect="1" arrows="1" fold="1" page="1" pageScale="1" pageWidth="827" pageHeight="1169" math="0" shadow="0">
      <root>
        <mxCell id="0" />
        <mxCell id="1" parent="0" />
        <mxCell id="frBV6I6ec1djIr-fkiNT-1" value="" style="rounded=1;whiteSpace=wrap;html=1;fillColor=#E6E6E6;" parent="1" vertex="1">
          <mxGeometry x="-40" y="40" width="120" height="60" as="geometry" />
        </mxCell>
        <mxCell id="frBV6I6ec1djIr-fkiNT-2" value="&lt;b&gt;&lt;font style=&quot;font-size: 14px;&quot;&gt;Frontend&lt;/font&gt;&lt;/b&gt;" style="text;html=1;align=center;verticalAlign=middle;whiteSpace=wrap;rounded=0;" parent="1" vertex="1">
          <mxGeometry x="-10" y="50" width="60" height="30" as="geometry" />
        </mxCell>
        <mxCell id="frBV6I6ec1djIr-fkiNT-5" value="" style="swimlane;startSize=0;fillColor=#999999;" parent="1" vertex="1">
          <mxGeometry x="120" y="-10" width="560" height="430" as="geometry" />
        </mxCell>
        <mxCell id="frBV6I6ec1djIr-fkiNT-6" value="&lt;b&gt;&lt;font style=&quot;font-size: 18px;&quot;&gt;Backend&lt;/font&gt;&lt;/b&gt;" style="text;html=1;align=center;verticalAlign=middle;whiteSpace=wrap;rounded=0;" parent="frBV6I6ec1djIr-fkiNT-5" vertex="1">
          <mxGeometry x="20" y="5" width="60" height="30" as="geometry" />
        </mxCell>
        <mxCell id="frBV6I6ec1djIr-fkiNT-7" value="" style="rounded=1;whiteSpace=wrap;html=1;fillColor=#E6E6E6;" parent="frBV6I6ec1djIr-fkiNT-5" vertex="1">
          <mxGeometry x="90" y="40" width="120" height="60" as="geometry" />
        </mxCell>
        <mxCell id="frBV6I6ec1djIr-fkiNT-34" style="edgeStyle=orthogonalEdgeStyle;rounded=0;orthogonalLoop=1;jettySize=auto;html=1;exitX=0.5;exitY=1;exitDx=0;exitDy=0;entryX=0.5;entryY=1;entryDx=0;entryDy=0;" parent="frBV6I6ec1djIr-fkiNT-5" source="frBV6I6ec1djIr-fkiNT-8" target="frBV6I6ec1djIr-fkiNT-8" edge="1">
          <mxGeometry relative="1" as="geometry" />
        </mxCell>
        <mxCell id="frBV6I6ec1djIr-fkiNT-8" value="" style="rounded=1;whiteSpace=wrap;html=1;fillColor=#E6E6E6;" parent="frBV6I6ec1djIr-fkiNT-5" vertex="1">
          <mxGeometry x="90" y="185" width="120" height="60" as="geometry" />
        </mxCell>
        <mxCell id="frBV6I6ec1djIr-fkiNT-9" value="" style="rounded=1;whiteSpace=wrap;html=1;fillColor=#E6E6E6;" parent="frBV6I6ec1djIr-fkiNT-5" vertex="1">
          <mxGeometry x="90" y="350" width="120" height="60" as="geometry" />
        </mxCell>
        <mxCell id="frBV6I6ec1djIr-fkiNT-10" value="Controller" style="text;html=1;align=center;verticalAlign=middle;whiteSpace=wrap;rounded=0;" parent="frBV6I6ec1djIr-fkiNT-5" vertex="1">
          <mxGeometry x="120" y="55" width="60" height="30" as="geometry" />
        </mxCell>
        <mxCell id="frBV6I6ec1djIr-fkiNT-11" value="Service" style="text;html=1;align=center;verticalAlign=middle;whiteSpace=wrap;rounded=0;" parent="frBV6I6ec1djIr-fkiNT-5" vertex="1">
          <mxGeometry x="120" y="195" width="60" height="40" as="geometry" />
        </mxCell>
        <mxCell id="frBV6I6ec1djIr-fkiNT-12" value="Repository" style="text;html=1;align=center;verticalAlign=middle;whiteSpace=wrap;rounded=0;" parent="frBV6I6ec1djIr-fkiNT-5" vertex="1">
          <mxGeometry x="120" y="360" width="60" height="30" as="geometry" />
        </mxCell>
        <mxCell id="frBV6I6ec1djIr-fkiNT-13" value="" style="rounded=1;whiteSpace=wrap;html=1;fillColor=#E6E6E6;" parent="frBV6I6ec1djIr-fkiNT-5" vertex="1">
          <mxGeometry x="390" y="110" width="120" height="60" as="geometry" />
        </mxCell>
        <mxCell id="frBV6I6ec1djIr-fkiNT-32" style="edgeStyle=orthogonalEdgeStyle;rounded=0;orthogonalLoop=1;jettySize=auto;html=1;exitX=1;exitY=0.5;exitDx=0;exitDy=0;entryX=0;entryY=0.5;entryDx=0;entryDy=0;" parent="frBV6I6ec1djIr-fkiNT-5" source="frBV6I6ec1djIr-fkiNT-14" target="frBV6I6ec1djIr-fkiNT-13" edge="1">
          <mxGeometry relative="1" as="geometry" />
        </mxCell>
        <mxCell id="frBV6I6ec1djIr-fkiNT-14" value="" style="rounded=1;whiteSpace=wrap;html=1;fillColor=#E6E6E6;" parent="frBV6I6ec1djIr-fkiNT-5" vertex="1">
          <mxGeometry x="244" y="110" width="120" height="60" as="geometry" />
        </mxCell>
        <mxCell id="frBV6I6ec1djIr-fkiNT-15" value="" style="rounded=1;whiteSpace=wrap;html=1;fillColor=#E6E6E6;" parent="frBV6I6ec1djIr-fkiNT-5" vertex="1">
          <mxGeometry x="425" y="20" width="120" height="60" as="geometry" />
        </mxCell>
        <mxCell id="frBV6I6ec1djIr-fkiNT-16" value="" style="rounded=1;whiteSpace=wrap;html=1;fillColor=#E6E6E6;" parent="frBV6I6ec1djIr-fkiNT-5" vertex="1">
          <mxGeometry x="244" y="185" width="120" height="60" as="geometry" />
        </mxCell>
        <mxCell id="frBV6I6ec1djIr-fkiNT-17" value="" style="rounded=1;whiteSpace=wrap;html=1;fillColor=#E6E6E6;" parent="frBV6I6ec1djIr-fkiNT-5" vertex="1">
          <mxGeometry x="244" y="260" width="120" height="60" as="geometry" />
        </mxCell>
        <mxCell id="frBV6I6ec1djIr-fkiNT-18" value="Operation" style="text;html=1;align=center;verticalAlign=middle;whiteSpace=wrap;rounded=0;" parent="frBV6I6ec1djIr-fkiNT-5" vertex="1">
          <mxGeometry x="274" y="125" width="60" height="30" as="geometry" />
        </mxCell>
        <mxCell id="frBV6I6ec1djIr-fkiNT-20" value="Model" style="text;html=1;align=center;verticalAlign=middle;whiteSpace=wrap;rounded=0;" parent="frBV6I6ec1djIr-fkiNT-5" vertex="1">
          <mxGeometry x="455" y="35" width="60" height="30" as="geometry" />
        </mxCell>
        <mxCell id="frBV6I6ec1djIr-fkiNT-19" value="Mapper" style="text;html=1;align=center;verticalAlign=middle;whiteSpace=wrap;rounded=0;" parent="frBV6I6ec1djIr-fkiNT-5" vertex="1">
          <mxGeometry x="274" y="200" width="60" height="30" as="geometry" />
        </mxCell>
        <mxCell id="frBV6I6ec1djIr-fkiNT-21" value="Logger" style="text;html=1;align=center;verticalAlign=middle;whiteSpace=wrap;rounded=0;" parent="frBV6I6ec1djIr-fkiNT-5" vertex="1">
          <mxGeometry x="425" y="125" width="50" height="30" as="geometry" />
        </mxCell>
        <mxCell id="frBV6I6ec1djIr-fkiNT-22" value="Converter" style="text;html=1;align=center;verticalAlign=middle;whiteSpace=wrap;rounded=0;" parent="frBV6I6ec1djIr-fkiNT-5" vertex="1">
          <mxGeometry x="274" y="275" width="60" height="30" as="geometry" />
        </mxCell>
        <mxCell id="frBV6I6ec1djIr-fkiNT-23" value="Exception" style="rounded=1;whiteSpace=wrap;html=1;fillColor=#E6E6E6;" parent="frBV6I6ec1djIr-fkiNT-5" vertex="1">
          <mxGeometry x="270" y="20" width="120" height="60" as="geometry" />
        </mxCell>
        <mxCell id="frBV6I6ec1djIr-fkiNT-26" value="" style="rounded=1;whiteSpace=wrap;html=1;fillColor=#E6E6E6;" parent="frBV6I6ec1djIr-fkiNT-5" vertex="1">
          <mxGeometry x="244" y="350" width="120" height="60" as="geometry" />
        </mxCell>
        <mxCell id="frBV6I6ec1djIr-fkiNT-27" value="Card storage" style="text;html=1;align=center;verticalAlign=middle;whiteSpace=wrap;rounded=0;" parent="frBV6I6ec1djIr-fkiNT-5" vertex="1">
          <mxGeometry x="274" y="360" width="60" height="30" as="geometry" />
        </mxCell>
        <mxCell id="frBV6I6ec1djIr-fkiNT-29" value="" style="endArrow=classic;html=1;rounded=0;exitX=0.5;exitY=1;exitDx=0;exitDy=0;entryX=0.5;entryY=0;entryDx=0;entryDy=0;" parent="frBV6I6ec1djIr-fkiNT-5" source="frBV6I6ec1djIr-fkiNT-7" target="frBV6I6ec1djIr-fkiNT-8" edge="1">
          <mxGeometry width="50" height="50" relative="1" as="geometry">
            <mxPoint x="180" y="250" as="sourcePoint" />
            <mxPoint x="230" y="200" as="targetPoint" />
          </mxGeometry>
        </mxCell>
        <mxCell id="frBV6I6ec1djIr-fkiNT-36" value="" style="rounded=1;whiteSpace=wrap;html=1;fillColor=#E6E6E6;" parent="frBV6I6ec1djIr-fkiNT-5" vertex="1">
          <mxGeometry x="395" y="260" width="120" height="60" as="geometry" />
        </mxCell>
        <mxCell id="frBV6I6ec1djIr-fkiNT-37" value="Service currently converter" style="text;html=1;align=center;verticalAlign=middle;whiteSpace=wrap;rounded=0;" parent="frBV6I6ec1djIr-fkiNT-5" vertex="1">
          <mxGeometry x="425" y="275" width="60" height="30" as="geometry" />
        </mxCell>
        <mxCell id="frBV6I6ec1djIr-fkiNT-41" value="&lt;b&gt;&lt;br&gt;&lt;span style=&quot;color: rgb(34, 34, 34); font-family: DDG_ProximaNova, DDG_ProximaNova_UI_0, DDG_ProximaNova_UI_1, DDG_ProximaNova_UI_2, DDG_ProximaNova_UI_3, DDG_ProximaNova_UI_4, DDG_ProximaNova_UI_5, DDG_ProximaNova_UI_6, &amp;quot;Proxima Nova&amp;quot;, -apple-system, BlinkMacSystemFont, &amp;quot;Segoe UI&amp;quot;, Roboto, Oxygen-Sans, Ubuntu, Cantarell, &amp;quot;Helvetica Neue&amp;quot;, Arial, &amp;quot;Noto Sans&amp;quot;, sans-serif, sans-serif, DDG_ProximaNova, DDG_ProximaNova_UI_0, DDG_ProximaNova_UI_1, DDG_ProximaNova_UI_2, DDG_ProximaNova_UI_3, DDG_ProximaNova_UI_4, DDG_ProximaNova_UI_5, DDG_ProximaNova_UI_6, &amp;quot;Proxima Nova&amp;quot;, -apple-system, BlinkMacSystemFont, &amp;quot;Segoe UI&amp;quot;, Roboto, Oxygen-Sans, Ubuntu, Cantarell, &amp;quot;Helvetica Neue&amp;quot;, Arial, &amp;quot;Noto Sans&amp;quot;, sans-serif; font-size: 16.4571px; font-style: normal; font-variant-ligatures: normal; font-variant-caps: normal; letter-spacing: normal; orphans: 2; text-align: start; text-indent: 0px; text-transform: none; widows: 2; word-spacing: 0px; -webkit-text-stroke-width: 0px; white-space: break-spaces; background-color: rgb(255, 255, 255); text-decoration-thickness: initial; text-decoration-style: initial; text-decoration-color: initial; float: none; display: inline !important;&quot;&gt;RESTful API&lt;/span&gt;&lt;br&gt;&lt;/b&gt;" style="text;html=1;align=center;verticalAlign=middle;whiteSpace=wrap;rounded=0;" parent="frBV6I6ec1djIr-fkiNT-5" vertex="1">
          <mxGeometry x="20" y="40" width="60" height="50" as="geometry" />
        </mxCell>
        <mxCell id="frBV6I6ec1djIr-fkiNT-42" value="" style="endArrow=classic;startArrow=classic;html=1;rounded=0;exitX=0.5;exitY=0;exitDx=0;exitDy=0;entryX=0.5;entryY=1;entryDx=0;entryDy=0;" parent="frBV6I6ec1djIr-fkiNT-5" source="frBV6I6ec1djIr-fkiNT-8" target="frBV6I6ec1djIr-fkiNT-7" edge="1">
          <mxGeometry width="50" height="50" relative="1" as="geometry">
            <mxPoint x="170" y="250" as="sourcePoint" />
            <mxPoint x="220" y="200" as="targetPoint" />
          </mxGeometry>
        </mxCell>
        <mxCell id="frBV6I6ec1djIr-fkiNT-43" value="" style="endArrow=classic;startArrow=classic;html=1;rounded=0;exitX=0.5;exitY=0;exitDx=0;exitDy=0;entryX=0.5;entryY=1;entryDx=0;entryDy=0;" parent="frBV6I6ec1djIr-fkiNT-5" source="frBV6I6ec1djIr-fkiNT-9" target="frBV6I6ec1djIr-fkiNT-8" edge="1">
          <mxGeometry width="50" height="50" relative="1" as="geometry">
            <mxPoint x="170" y="250" as="sourcePoint" />
            <mxPoint x="220" y="200" as="targetPoint" />
          </mxGeometry>
        </mxCell>
        <mxCell id="frBV6I6ec1djIr-fkiNT-44" value="" style="endArrow=classic;startArrow=classic;html=1;rounded=0;exitX=0.75;exitY=0;exitDx=0;exitDy=0;entryX=0.007;entryY=0.421;entryDx=0;entryDy=0;entryPerimeter=0;" parent="frBV6I6ec1djIr-fkiNT-5" source="frBV6I6ec1djIr-fkiNT-8" target="frBV6I6ec1djIr-fkiNT-14" edge="1">
          <mxGeometry width="50" height="50" relative="1" as="geometry">
            <mxPoint x="170" y="250" as="sourcePoint" />
            <mxPoint x="220" y="200" as="targetPoint" />
          </mxGeometry>
        </mxCell>
        <mxCell id="frBV6I6ec1djIr-fkiNT-45" value="" style="endArrow=classic;startArrow=classic;html=1;rounded=0;entryX=0.007;entryY=0.41;entryDx=0;entryDy=0;entryPerimeter=0;exitX=1.014;exitY=0.41;exitDx=0;exitDy=0;exitPerimeter=0;" parent="frBV6I6ec1djIr-fkiNT-5" source="frBV6I6ec1djIr-fkiNT-8" target="frBV6I6ec1djIr-fkiNT-16" edge="1">
          <mxGeometry width="50" height="50" relative="1" as="geometry">
            <mxPoint x="170" y="250" as="sourcePoint" />
            <mxPoint x="220" y="200" as="targetPoint" />
          </mxGeometry>
        </mxCell>
        <mxCell id="frBV6I6ec1djIr-fkiNT-46" value="" style="endArrow=classic;startArrow=classic;html=1;rounded=0;exitX=-0.002;exitY=0.402;exitDx=0;exitDy=0;exitPerimeter=0;entryX=1.005;entryY=0.402;entryDx=0;entryDy=0;entryPerimeter=0;" parent="frBV6I6ec1djIr-fkiNT-5" source="frBV6I6ec1djIr-fkiNT-26" target="frBV6I6ec1djIr-fkiNT-9" edge="1">
          <mxGeometry width="50" height="50" relative="1" as="geometry">
            <mxPoint x="170" y="250" as="sourcePoint" />
            <mxPoint x="220" y="200" as="targetPoint" />
          </mxGeometry>
        </mxCell>
        <mxCell id="frBV6I6ec1djIr-fkiNT-47" value="" style="endArrow=classic;startArrow=classic;html=1;rounded=0;exitX=0;exitY=0.5;exitDx=0;exitDy=0;entryX=0.75;entryY=1;entryDx=0;entryDy=0;" parent="frBV6I6ec1djIr-fkiNT-5" source="frBV6I6ec1djIr-fkiNT-17" target="frBV6I6ec1djIr-fkiNT-8" edge="1">
          <mxGeometry width="50" height="50" relative="1" as="geometry">
            <mxPoint x="170" y="250" as="sourcePoint" />
            <mxPoint x="220" y="200" as="targetPoint" />
          </mxGeometry>
        </mxCell>
        <mxCell id="frBV6I6ec1djIr-fkiNT-48" value="" style="endArrow=classic;startArrow=classic;html=1;rounded=0;exitX=1;exitY=0.5;exitDx=0;exitDy=0;" parent="frBV6I6ec1djIr-fkiNT-5" source="frBV6I6ec1djIr-fkiNT-17" target="frBV6I6ec1djIr-fkiNT-36" edge="1">
          <mxGeometry width="50" height="50" relative="1" as="geometry">
            <mxPoint x="170" y="250" as="sourcePoint" />
            <mxPoint x="220" y="200" as="targetPoint" />
          </mxGeometry>
        </mxCell>
        <mxCell id="frBV6I6ec1djIr-fkiNT-39" value="" style="endArrow=classic;startArrow=classic;html=1;rounded=0;exitX=1;exitY=0.5;exitDx=0;exitDy=0;entryX=-0.001;entryY=0.186;entryDx=0;entryDy=0;entryPerimeter=0;" parent="1" source="frBV6I6ec1djIr-fkiNT-1" target="frBV6I6ec1djIr-fkiNT-5" edge="1">
          <mxGeometry width="50" height="50" relative="1" as="geometry">
            <mxPoint x="290" y="240" as="sourcePoint" />
            <mxPoint x="340" y="190" as="targetPoint" />
          </mxGeometry>
        </mxCell>
        <mxCell id="kc0-kyQEWpfPFkMr28Nt-4" value="&lt;p style=&quot;margin:0px;margin-top:4px;text-align:center;&quot;&gt;&lt;b&gt;Class&lt;/b&gt;&lt;/p&gt;&lt;p style=&quot;margin:0px;margin-top:4px;text-align:center;&quot;&gt;&lt;b&gt;CalculateCommission&lt;/b&gt;&lt;/p&gt;&lt;hr size=&quot;1&quot; style=&quot;border-style:solid;&quot;&gt;&lt;p style=&quot;margin:0px;margin-left:4px;&quot;&gt;&lt;/p&gt;&lt;p style=&quot;margin:0px;margin-left:4px;&quot;&gt;calculate(double, Currency): double&lt;/p&gt;" style="verticalAlign=top;align=left;overflow=fill;html=1;whiteSpace=wrap;" parent="1" vertex="1">
          <mxGeometry x="-570" y="-170" width="210" height="90" as="geometry" />
        </mxCell>
        <mxCell id="kc0-kyQEWpfPFkMr28Nt-5" value="&lt;p style=&quot;margin:0px;margin-top:4px;text-align:center;&quot;&gt;&lt;i&gt;&amp;lt;&amp;lt;Interface&amp;gt;&amp;gt;&lt;/i&gt;&lt;br/&gt;&lt;b&gt;Interface&lt;/b&gt;&lt;/p&gt;&lt;hr size=&quot;1&quot; style=&quot;border-style:solid;&quot;/&gt;&lt;p style=&quot;margin:0px;margin-left:4px;&quot;&gt;+ field1: Type&lt;br/&gt;+ field2: Type&lt;/p&gt;&lt;hr size=&quot;1&quot; style=&quot;border-style:solid;&quot;/&gt;&lt;p style=&quot;margin:0px;margin-left:4px;&quot;&gt;+ method1(Type): Type&lt;br/&gt;+ method2(Type, Type): Type&lt;/p&gt;" style="verticalAlign=top;align=left;overflow=fill;html=1;whiteSpace=wrap;" parent="1" vertex="1">
          <mxGeometry x="160" y="530" width="190" height="140" as="geometry" />
        </mxCell>
        <mxCell id="-Bp-wA4eoz6q-x03ic0_-7" value="&lt;p style=&quot;margin:0px;margin-top:4px;text-align:center;&quot;&gt;&lt;b&gt;Class&lt;/b&gt;&lt;/p&gt;&lt;p style=&quot;margin:0px;margin-top:4px;text-align:center;&quot;&gt;&lt;b style=&quot;background-color: transparent; color: light-dark(rgb(0, 0, 0), rgb(255, 255, 255));&quot;&gt;@Configuration&lt;/b&gt;&lt;/p&gt;&lt;p style=&quot;margin:0px;margin-top:4px;text-align:center;&quot;&gt;&lt;b&gt;CurrencyConverterConfig&lt;/b&gt;&lt;/p&gt;&lt;p style=&quot;margin:0px;margin-left:4px;&quot;&gt;&lt;br&gt;&lt;/p&gt;&lt;hr size=&quot;1&quot; style=&quot;border-style:solid;&quot;&gt;&lt;p style=&quot;margin:0px;margin-left:4px;&quot;&gt;@Bean&lt;/p&gt;&lt;p style=&quot;margin:0px;margin-left:4px;&quot;&gt;currencyConverter(RestTemplate): CurrencyConverter&lt;/p&gt;&lt;p style=&quot;margin:0px;margin-left:4px;&quot;&gt;&lt;br&gt;&lt;/p&gt;&lt;p style=&quot;margin:0px;margin-left:4px;&quot;&gt;@Bean&lt;/p&gt;&lt;p style=&quot;margin:0px;margin-left:4px;&quot;&gt;restTemplate(): RestTemplate&lt;/p&gt;" style="verticalAlign=top;align=left;overflow=fill;html=1;whiteSpace=wrap;" vertex="1" parent="1">
          <mxGeometry x="-310" y="-180" width="310" height="160" as="geometry" />
        </mxCell>
        <mxCell id="-Bp-wA4eoz6q-x03ic0_-8" value="&lt;p style=&quot;margin:0px;margin-top:4px;text-align:center;&quot;&gt;&lt;b&gt;Class&lt;/b&gt;&lt;/p&gt;&lt;p style=&quot;margin:0px;margin-top:4px;text-align:center;&quot;&gt;&lt;b&gt;@RestControllerAdvice&lt;/b&gt;&lt;/p&gt;&lt;p style=&quot;margin:0px;margin-top:4px;text-align:center;&quot;&gt;&lt;b&gt;GlobalExceptionHandler&lt;/b&gt;&lt;/p&gt;&lt;p style=&quot;margin:0px;margin-left:4px;&quot;&gt;&lt;br&gt;&lt;/p&gt;&lt;hr size=&quot;1&quot; style=&quot;border-style:solid;&quot;&gt;&lt;p style=&quot;margin:0px;margin-left:4px;&quot;&gt;@ExceptionHandler&lt;/p&gt;&lt;p style=&quot;margin:0px;margin-left:4px;&quot;&gt;catchResourceArgumentNotValidException(MetodArgumentNotValidException): ResponseEntity&amp;lt;Object&amp;gt;&lt;/p&gt;&lt;p style=&quot;margin:0px;margin-left:4px;&quot;&gt;&lt;br&gt;&lt;/p&gt;&lt;p style=&quot;margin:0px;margin-left:4px;&quot;&gt;@ExceptionHandler&lt;/p&gt;&lt;p style=&quot;margin:0px;margin-left:4px;&quot;&gt;catchResourceErrorConfirmationException(ErrorConfirmationException): ResponseEntity&amp;lt;Object&amp;gt;&lt;/p&gt;&lt;p style=&quot;margin:0px;margin-left:4px;&quot;&gt;&lt;br&gt;&lt;/p&gt;&lt;p style=&quot;margin:0px;margin-left:4px;&quot;&gt;@ExceptionHandler&lt;/p&gt;&lt;p style=&quot;margin:0px;margin-left:4px;&quot;&gt;catchResourceErrorTransferException(ErrorTransferException): ResponseEntity&amp;lt;Object&amp;gt;&lt;/p&gt;&lt;p style=&quot;margin:0px;margin-left:4px;&quot;&gt;&lt;br&gt;&lt;/p&gt;&lt;p style=&quot;margin:0px;margin-left:4px;&quot;&gt;@ExceptionHandler&lt;/p&gt;&lt;p style=&quot;margin:0px;margin-left:4px;&quot;&gt;catchResourceErroInputDataException(ErroInputDataException): ResponseEntity&amp;lt;Object&amp;gt;&lt;/p&gt;&lt;p style=&quot;margin:0px;margin-left:4px;&quot;&gt;&lt;br&gt;&lt;/p&gt;&lt;p style=&quot;margin:0px;margin-left:4px;&quot;&gt;&lt;span style=&quot;background-color: transparent; color: light-dark(rgb(0, 0, 0), rgb(255, 255, 255));&quot;&gt;@ExceptionHandler&lt;/span&gt;&lt;/p&gt;&lt;p style=&quot;margin:0px;margin-left:4px;&quot;&gt;catchResourceNumberFormatException(NumberFormatException): ResponseEntity&amp;lt;Object&amp;gt;&lt;/p&gt;&lt;p style=&quot;margin:0px;margin-left:4px;&quot;&gt;&lt;br&gt;&lt;/p&gt;" style="verticalAlign=top;align=left;overflow=fill;html=1;whiteSpace=wrap;" vertex="1" parent="1">
          <mxGeometry x="-810" width="580" height="300" as="geometry" />
        </mxCell>
        <mxCell id="-Bp-wA4eoz6q-x03ic0_-9" value="&lt;p style=&quot;margin:0px;margin-top:4px;text-align:center;&quot;&gt;&lt;b&gt;Class&lt;/b&gt;&lt;/p&gt;&lt;hr size=&quot;1&quot; style=&quot;border-style:solid;&quot;/&gt;&lt;p style=&quot;margin:0px;margin-left:4px;&quot;&gt;+ field: Type&lt;/p&gt;&lt;hr size=&quot;1&quot; style=&quot;border-style:solid;&quot;/&gt;&lt;p style=&quot;margin:0px;margin-left:4px;&quot;&gt;+ method(): Type&lt;/p&gt;" style="verticalAlign=top;align=left;overflow=fill;html=1;whiteSpace=wrap;" vertex="1" parent="1">
          <mxGeometry x="-710" y="440" width="830" height="340" as="geometry" />
        </mxCell>
      </root>
    </mxGraphModel>
  </diagram>
</mxfile>
